<mxfile host="app.diagrams.net" agent="Mozilla/5.0 (Windows NT 10.0; Win64; x64) AppleWebKit/537.36 (KHTML, like Gecko) Chrome/109.0.0.0 Safari/537.36" version="26.2.6">
  <diagram name="第 1 页" id="divvTchaXtALyTu64W2u">
    <mxGraphModel dx="954" dy="524" grid="1" gridSize="10" guides="1" tooltips="1" connect="1" arrows="1" fold="1" page="1" pageScale="1" pageWidth="827" pageHeight="1169" math="0" shadow="0">
      <root>
        <mxCell id="0" />
        <mxCell id="1" parent="0" />
        <mxCell id="TGuO3DXBG8rAcAUJRnT1-1" value="市场体系" style="swimlane;whiteSpace=wrap;html=1;" vertex="1" parent="1">
          <mxGeometry x="140" y="170" width="120" height="200" as="geometry" />
        </mxCell>
        <mxCell id="TGuO3DXBG8rAcAUJRnT1-15" value="竞品分析" style="whiteSpace=wrap;html=1;" vertex="1" parent="TGuO3DXBG8rAcAUJRnT1-1">
          <mxGeometry y="30" width="120" height="20" as="geometry" />
        </mxCell>
        <mxCell id="TGuO3DXBG8rAcAUJRnT1-16" value="区域销售分布" style="whiteSpace=wrap;html=1;" vertex="1" parent="TGuO3DXBG8rAcAUJRnT1-1">
          <mxGeometry y="60" width="120" height="20" as="geometry" />
        </mxCell>
        <mxCell id="TGuO3DXBG8rAcAUJRnT1-17" value="市场份额" style="whiteSpace=wrap;html=1;" vertex="1" parent="TGuO3DXBG8rAcAUJRnT1-1">
          <mxGeometry y="90" width="120" height="20" as="geometry" />
        </mxCell>
        <mxCell id="TGuO3DXBG8rAcAUJRnT1-18" value="渠道表现" style="whiteSpace=wrap;html=1;" vertex="1" parent="TGuO3DXBG8rAcAUJRnT1-1">
          <mxGeometry y="120" width="120" height="20" as="geometry" />
        </mxCell>
        <mxCell id="TGuO3DXBG8rAcAUJRnT1-2" value="财务体系" style="swimlane;whiteSpace=wrap;html=1;" vertex="1" parent="1">
          <mxGeometry x="539" y="170" width="120" height="200" as="geometry" />
        </mxCell>
        <mxCell id="TGuO3DXBG8rAcAUJRnT1-3" value="客户体系" style="swimlane;whiteSpace=wrap;html=1;" vertex="1" parent="1">
          <mxGeometry x="273" y="170" width="120" height="200" as="geometry" />
        </mxCell>
        <mxCell id="TGuO3DXBG8rAcAUJRnT1-19" value="会员" style="whiteSpace=wrap;html=1;" vertex="1" parent="TGuO3DXBG8rAcAUJRnT1-3">
          <mxGeometry y="30" width="120" height="20" as="geometry" />
        </mxCell>
        <mxCell id="TGuO3DXBG8rAcAUJRnT1-20" value="消费者" style="whiteSpace=wrap;html=1;" vertex="1" parent="TGuO3DXBG8rAcAUJRnT1-3">
          <mxGeometry y="60" width="120" height="20" as="geometry" />
        </mxCell>
        <mxCell id="TGuO3DXBG8rAcAUJRnT1-5" value="商品体系" style="swimlane;whiteSpace=wrap;html=1;" vertex="1" parent="1">
          <mxGeometry x="406" y="170" width="120" height="200" as="geometry" />
        </mxCell>
        <mxCell id="TGuO3DXBG8rAcAUJRnT1-6" value="供应链体系" style="swimlane;whiteSpace=wrap;html=1;" vertex="1" parent="1">
          <mxGeometry x="671" y="170" width="120" height="200" as="geometry" />
        </mxCell>
        <mxCell id="TGuO3DXBG8rAcAUJRnT1-7" value="运营体系" style="swimlane;whiteSpace=wrap;html=1;" vertex="1" parent="1">
          <mxGeometry x="804" y="170" width="120" height="200" as="geometry" />
        </mxCell>
        <mxCell id="TGuO3DXBG8rAcAUJRnT1-8" value="管理驾驶舱：业绩地图、关键业务指标、综合绩效分析、业绩预算执行监控、应收账龄和周转、供应链运营监控" style="rounded=0;whiteSpace=wrap;html=1;dashed=1;align=left;" vertex="1" parent="1">
          <mxGeometry x="140" y="90" width="1050" height="40" as="geometry" />
        </mxCell>
        <mxCell id="TGuO3DXBG8rAcAUJRnT1-9" value="质量体系" style="swimlane;whiteSpace=wrap;html=1;" vertex="1" parent="1">
          <mxGeometry x="937" y="170" width="120" height="200" as="geometry" />
        </mxCell>
        <mxCell id="TGuO3DXBG8rAcAUJRnT1-10" value="人力体系" style="swimlane;whiteSpace=wrap;html=1;" vertex="1" parent="1">
          <mxGeometry x="1070" y="170" width="120" height="200" as="geometry" />
        </mxCell>
      </root>
    </mxGraphModel>
  </diagram>
</mxfile>
